<svg width="51" height="38" viewBox="0 0 51 38" fill="none" xmlns="http://www.w3.org/2000/svg">
<path d="M21.8363 35.8894L42.5525 35.8884C42.69 35.8884 42.8337 35.8884 42.9675 35.9034V35.8897C46.3512 35.8897 49.1038 33.1372 49.1038 29.7534C49.1038 26.3697 46.3512 23.6172 42.9675 23.6172C42.49 23.6172 41.9925 23.6785 41.4875 23.8034C41.3238 23.8434 41.15 23.8146 41.0088 23.7196C40.8688 23.6259 40.7737 23.4784 40.7475 23.3109C40.0625 18.9446 36.3563 15.7746 31.9375 15.7746C27.0138 15.7746 23.0075 19.7808 23.0075 24.7058C23.0075 24.9471 23.025 25.1859 23.0437 25.4234C23.0587 25.6021 22.9937 25.7784 22.865 25.9034C22.7362 26.0284 22.5587 26.0884 22.38 26.0721C22.2012 26.0533 22.0212 26.0408 21.8362 26.0408C19.1224 26.0408 16.9137 28.2508 16.9137 30.9646C16.9137 33.6796 19.1224 35.8896 21.8362 35.8896L21.8363 35.8894ZM21.8037 24.8358C21.8037 24.7933 21.8027 24.7495 21.8027 24.7058C21.8027 19.1171 26.3489 14.5695 31.9377 14.5695C36.7427 14.5695 40.804 17.8721 41.8215 22.5058C42.2102 22.4421 42.5927 22.4121 42.9677 22.4121C47.0164 22.4121 50.309 25.7046 50.309 29.7534C50.309 33.8009 47.0164 37.0946 42.9677 37.0946H42.9617C42.8717 37.0936 40.5554 37.0936 37.4892 37.0936L21.8367 37.0946C18.458 37.0946 15.7092 34.3446 15.7092 30.9646C15.7092 27.5959 18.4392 24.8546 21.8042 24.8358" fill="white"/>
<path d="M9.84225 18.7519C9.84225 13.3844 14.2098 9.0181 19.576 9.0181C22.8585 9.0181 25.6997 10.4231 27.5085 13.1644C27.691 13.4431 27.6147 13.8169 27.3372 13.9994C27.0585 14.1844 26.6848 14.1069 26.5023 13.8294C24.9173 11.4269 22.451 10.2231 19.576 10.2231C14.8735 10.2231 11.0473 14.0481 11.0473 18.7519C11.0473 21.6631 12.5097 24.3456 14.9585 25.9243C15.2372 26.1056 15.3185 26.4781 15.1373 26.7569C15.0235 26.9369 14.8297 27.0331 14.6322 27.0331C14.5197 27.0331 14.406 27.0031 14.3047 26.9369C11.511 25.1344 9.84225 22.0744 9.84225 18.7519" fill="white"/>
<path d="M19.4479 6.03702C19.1141 6.03702 18.8454 5.76826 18.8454 5.43576V0.621979C18.8454 0.289479 19.1141 0.0207214 19.4479 0.0207214C19.7804 0.0207214 20.0504 0.289479 20.0504 0.621979V5.43576C20.0504 5.76826 19.7804 6.03702 19.4479 6.03702Z" fill="white"/>
<path d="M12.8568 7.91321C12.7581 7.97451 12.6493 8.00324 12.5405 8.00324C12.3393 8.00324 12.1418 7.90196 12.0268 7.71821L9.49427 3.62574C9.32052 3.34324 9.40677 2.97197 9.68927 2.79572C9.97302 2.62197 10.343 2.7082 10.5193 2.99195L13.0518 7.0832C13.228 7.36695 13.1405 7.73696 12.8568 7.91321Z" fill="white"/>
<path d="M7.87502 12.9816C7.78002 12.9816 7.68252 12.9578 7.59127 12.9103L3.34627 10.6365C3.05252 10.4803 2.94127 10.1153 3.09877 9.82154C3.25502 9.52779 3.62001 9.41654 3.91501 9.57404L8.16002 11.8478C8.45377 12.0053 8.56502 12.3703 8.40627 12.6628C8.29877 12.8665 8.09002 12.9816 7.87502 12.9816Z" fill="white"/>
<path d="M1.50539 17.9217H1.50739L6.32239 17.9356C6.65614 17.9356 6.92488 18.2068 6.92363 18.5393C6.92263 18.8718 6.65364 19.1405 6.32114 19.1405H6.32013L1.50513 19.1269C1.17138 19.1259 0.902634 18.8543 0.902634 18.5206C0.903634 18.1893 1.17263 17.9218 1.50513 17.9218" fill="white"/>
<path d="M3.40488 26.6351L7.63239 24.3239C7.92489 24.1652 8.29114 24.2714 8.44989 24.5651C8.60989 24.8564 8.50239 25.2226 8.20989 25.3814L3.98238 27.6926C3.89118 27.7426 3.79239 27.7651 3.69364 27.7651C3.48239 27.7651 3.27489 27.6527 3.16489 27.4514C3.00614 27.1602 3.11368 26.7939 3.40488 26.6351Z" fill="white"/>
<path d="M35.4891 10.4719L31.2616 12.7819C31.1691 12.8332 31.0704 12.8557 30.9729 12.8557C30.7604 12.8557 30.5529 12.7419 30.4441 12.5419C30.2841 12.2506 30.3916 11.8844 30.6841 11.7257L34.9116 9.41438C35.2041 9.25438 35.5691 9.36193 35.7291 9.65443C35.8879 9.94568 35.7816 10.3119 35.4891 10.4719Z" fill="white"/>
<path d="M11.9729 29.372C12.1504 29.0895 12.5204 29.0032 12.8041 29.182C13.0854 29.357 13.1704 29.7295 12.9941 30.0107L10.4404 34.0957C10.3266 34.2782 10.1291 34.3795 9.92914 34.3795C9.81914 34.3795 9.70913 34.3482 9.61038 34.2882C9.32788 34.1107 9.24163 33.7382 9.41913 33.4569L11.9729 29.3719V29.372Z" fill="white"/>
<path d="M26.921 7.73624C26.8072 7.91874 26.6098 8.02 26.4098 8.02C26.301 8.02 26.191 7.99003 26.091 7.92753C25.8085 7.75128 25.7235 7.37998 25.8997 7.09623L28.4548 3.01249C28.631 2.72999 29.0023 2.64377 29.2848 2.82127C29.566 2.99752 29.6522 3.36878 29.4747 3.65128L26.921 7.73624Z" fill="white"/>
</svg>
