<svg width="150" height="150" viewBox="0 0 150 150" fill="none" xmlns="http://www.w3.org/2000/svg">
<path d="M99.75 75.0048L146.155 28.6003C151.282 23.473 151.282 15.1605 146.155 10.0413L139.968 3.85503C134.839 -1.27379 126.527 -1.27379 121.408 3.85503L75.0048 50.258L28.6003 3.84541C23.473 -1.2818 15.1605 -1.2818 10.0413 3.84541L3.84541 10.0317C-1.2818 15.1605 -1.2818 23.473 3.84541 28.5923L50.258 75.0048L3.85503 121.408C-1.27379 126.537 -1.27379 134.849 3.85503 139.968L10.0413 146.155C15.1686 151.282 23.4811 151.282 28.6003 146.155L75.0048 99.75L121.408 146.155C126.537 151.282 134.849 151.282 139.968 146.155L146.155 139.968C151.282 134.839 151.282 126.527 146.155 121.408L99.75 75.0048Z" fill="#E9E9E9"/>
</svg>